<svg width="95" height="22" viewBox="0 0 95 22" fill="none" xmlns="http://www.w3.org/2000/svg">
<path d="M3.18 4.3V7.8H7.88V10.02H3.18V13.72H8.48V16H0.38V2.02H8.48V4.3H3.18ZM10.3045 10.42C10.3045 9.3 10.5245 8.30667 10.9645 7.44C11.4179 6.57333 12.0245 5.90667 12.7845 5.44C13.5579 4.97333 14.4179 4.74 15.3645 4.74C16.1912 4.74 16.9112 4.90667 17.5245 5.24C18.1512 5.57333 18.6512 5.99333 19.0245 6.5V4.92H21.8445V16H19.0245V14.38C18.6645 14.9 18.1645 15.3333 17.5245 15.68C16.8979 16.0133 16.1712 16.18 15.3445 16.18C14.4112 16.18 13.5579 15.94 12.7845 15.46C12.0245 14.98 11.4179 14.3067 10.9645 13.44C10.5245 12.56 10.3045 11.5533 10.3045 10.42ZM19.0245 10.46C19.0245 9.78 18.8912 9.2 18.6245 8.72C18.3579 8.22667 17.9979 7.85333 17.5445 7.6C17.0912 7.33333 16.6045 7.2 16.0845 7.2C15.5645 7.2 15.0845 7.32667 14.6445 7.58C14.2045 7.83333 13.8445 8.20667 13.5645 8.7C13.2979 9.18 13.1645 9.75333 13.1645 10.42C13.1645 11.0867 13.2979 11.6733 13.5645 12.18C13.8445 12.6733 14.2045 13.0533 14.6445 13.32C15.0979 13.5867 15.5779 13.72 16.0845 13.72C16.6045 13.72 17.0912 13.5933 17.5445 13.34C17.9979 13.0733 18.3579 12.7 18.6245 12.22C18.8912 11.7267 19.0245 11.14 19.0245 10.46ZM28.8192 16.18C27.9126 16.18 27.0992 16.02 26.3792 15.7C25.6592 15.3667 25.0859 14.92 24.6592 14.36C24.2459 13.8 24.0192 13.18 23.9792 12.5H26.7992C26.8526 12.9267 27.0592 13.28 27.4192 13.56C27.7926 13.84 28.2526 13.98 28.7992 13.98C29.3326 13.98 29.7459 13.8733 30.0392 13.66C30.3459 13.4467 30.4992 13.1733 30.4992 12.84C30.4992 12.48 30.3126 12.2133 29.9392 12.04C29.5792 11.8533 28.9992 11.6533 28.1992 11.44C27.3726 11.24 26.6926 11.0333 26.1592 10.82C25.6392 10.6067 25.1859 10.28 24.7992 9.84C24.4259 9.4 24.2392 8.80667 24.2392 8.06C24.2392 7.44667 24.4126 6.88667 24.7592 6.38C25.1192 5.87333 25.6259 5.47333 26.2792 5.18C26.9459 4.88667 27.7259 4.74 28.6192 4.74C29.9392 4.74 30.9926 5.07333 31.7792 5.74C32.5659 6.39333 32.9992 7.28 33.0792 8.4H30.3992C30.3592 7.96 30.1726 7.61333 29.8392 7.36C29.5192 7.09333 29.0859 6.96 28.5392 6.96C28.0326 6.96 27.6392 7.05333 27.3592 7.24C27.0926 7.42667 26.9592 7.68667 26.9592 8.02C26.9592 8.39333 27.1459 8.68 27.5192 8.88C27.8926 9.06667 28.4726 9.26 29.2592 9.46C30.0592 9.66 30.7192 9.86667 31.2392 10.08C31.7592 10.2933 32.2059 10.6267 32.5792 11.08C32.9659 11.52 33.1659 12.1067 33.1792 12.84C33.1792 13.48 32.9992 14.0533 32.6392 14.56C32.2926 15.0667 31.7859 15.4667 31.1192 15.76C30.4659 16.04 29.6992 16.18 28.8192 16.18ZM46.0777 4.92L39.2177 21.24H36.2377L38.6377 15.72L34.1977 4.92H37.3377L40.1977 12.66L43.0977 4.92H46.0777ZM57.987 18.46L55.867 15.92C55.2804 16.0667 54.6804 16.14 54.067 16.14C52.7604 16.14 51.5604 15.8333 50.467 15.22C49.3737 14.6067 48.507 13.76 47.867 12.68C47.227 11.5867 46.907 10.3533 46.907 8.98C46.907 7.62 47.227 6.4 47.867 5.32C48.507 4.22667 49.3737 3.37333 50.467 2.76C51.5604 2.14667 52.7604 1.84 54.067 1.84C55.387 1.84 56.587 2.14667 57.667 2.76C58.7604 3.37333 59.6204 4.22667 60.247 5.32C60.887 6.4 61.207 7.62 61.207 8.98C61.207 10.22 60.9404 11.3533 60.407 12.38C59.887 13.3933 59.1737 14.22 58.267 14.86L61.467 18.46H57.987ZM49.787 8.98C49.787 9.91333 49.967 10.7333 50.327 11.44C50.687 12.1467 51.187 12.6933 51.827 13.08C52.4804 13.4533 53.227 13.64 54.067 13.64C54.907 13.64 55.647 13.4533 56.287 13.08C56.927 12.6933 57.427 12.1467 57.787 11.44C58.147 10.7333 58.327 9.91333 58.327 8.98C58.327 8.04667 58.147 7.23333 57.787 6.54C57.427 5.83333 56.927 5.29333 56.287 4.92C55.647 4.54667 54.907 4.36 54.067 4.36C53.227 4.36 52.4804 4.54667 51.827 4.92C51.187 5.29333 50.687 5.83333 50.327 6.54C49.967 7.23333 49.787 8.04667 49.787 8.98ZM73.7892 4.92V16H70.9692V14.6C70.6092 15.08 70.1359 15.46 69.5492 15.74C68.9759 16.0067 68.3492 16.14 67.6692 16.14C66.8026 16.14 66.0359 15.96 65.3692 15.6C64.7026 15.2267 64.1759 14.6867 63.7892 13.98C63.4159 13.26 63.2292 12.4067 63.2292 11.42V4.92H66.0292V11.02C66.0292 11.9 66.2492 12.58 66.6892 13.06C67.1292 13.5267 67.7292 13.76 68.4892 13.76C69.2626 13.76 69.8692 13.5267 70.3092 13.06C70.7492 12.58 70.9692 11.9 70.9692 11.02V4.92H73.7892ZM77.9719 3.6C77.4785 3.6 77.0652 3.44667 76.7319 3.14C76.4119 2.82 76.2519 2.42667 76.2519 1.96C76.2519 1.49333 76.4119 1.10667 76.7319 0.799999C77.0652 0.479999 77.4785 0.319999 77.9719 0.319999C78.4652 0.319999 78.8719 0.479999 79.1919 0.799999C79.5252 1.10667 79.6919 1.49333 79.6919 1.96C79.6919 2.42667 79.5252 2.82 79.1919 3.14C78.8719 3.44667 78.4652 3.6 77.9719 3.6ZM79.3519 4.92V16H76.5519V4.92H79.3519ZM84.6783 13.7H89.6183V16H81.4983V13.74L86.3383 7.22H81.5183V4.92H89.5583V7.18L84.6783 13.7ZM93.2063 3.6C92.7129 3.6 92.2996 3.44667 91.9663 3.14C91.6463 2.82 91.4863 2.42667 91.4863 1.96C91.4863 1.49333 91.6463 1.10667 91.9663 0.799999C92.2996 0.479999 92.7129 0.319999 93.2063 0.319999C93.6996 0.319999 94.1063 0.479999 94.4263 0.799999C94.7596 1.10667 94.9263 1.49333 94.9263 1.96C94.9263 2.42667 94.7596 2.82 94.4263 3.14C94.1063 3.44667 93.6996 3.6 93.2063 3.6ZM94.5863 4.92V16H91.7863V4.92H94.5863Z"/>
</svg>
